<?xml version="1.0" encoding="UTF-8"?>
<!-- Created with Inkscape (http://www.inkscape.org/) -->
<svg  version="1.1" xmlns="http://www.w3.org/2000/svg" xmlns:cc="http://creativecommons.org/ns#" xmlns:dc="http://purl.org/dc/elements/1.1/" xmlns:rdf="http://www.w3.org/1999/02/22-rdf-syntax-ns#">
 <metadata>
  <rdf:RDF>
   <cc:Work rdf:about="">
    <dc:format>image/svg+xml</dc:format>
    <dc:type rdf:resource="http://purl.org/dc/dcmitype/StillImage"/>
    <dc:title/>
   </cc:Work>
  </rdf:RDF>
 </metadata>
 <g fill="#ff0" stroke-width=".048724">
  <rect id="1" x="5" y="257" width="25" height="20"/>
  <rect id="11" x="40" y="257" width="25" height="20"/>
  <rect id="21" x="75" y="257" width="25" height="20"/>
  <rect id="31" x="110" y="257" width="25" height="20"/>
  <rect id="41" x="145" y="257" width="25" height="20"/>
  <rect id="51" x="180" y="257" width="25" height="20"/>
  <rect id="2" x="5" y="232" width="25" height="20"/>
  <rect id="12" x="40" y="232" width="25" height="20"/>
  <rect id="22" x="75" y="232" width="25" height="20"/>
  <rect id="32" x="110" y="232" width="25" height="20"/>
  <rect id="42" x="145" y="232" width="25" height="20"/>
  <rect id="52" x="180" y="232" width="25" height="20"/>
  <rect id="3" x="5" y="207" width="25" height="20"/>
  <rect id="13" x="40" y="207" width="25" height="20"/>
  <rect id="23" x="75" y="207" width="25" height="20"/>
  <rect id="33" x="110" y="207" width="25" height="20"/>
  <rect id="43" x="145" y="207" width="25" height="20"/>
  <rect id="53" x="180" y="207" width="25" height="20"/>
  <rect id="4" x="5" y="182" width="25" height="20"/>
  <rect id="14" x="40" y="182" width="25" height="20"/>
  <rect id="24" x="75" y="182" width="25" height="20"/>
  <rect id="34" x="110" y="182" width="25" height="20"/>
  <rect id="44" x="145" y="182" width="25" height="20"/>
  <rect id="54" x="180" y="182" width="25" height="20"/>
  <rect id="5" x="5" y="157" width="25" height="20"/>
  <rect id="15" x="40" y="157" width="25" height="20"/>
  <rect id="25" x="75" y="157" width="25" height="20"/>
  <rect id="35" x="110" y="157" width="25" height="20"/>
  <rect id="45" x="145" y="157" width="25" height="20"/>
  <rect id="55" x="180" y="157" width="25" height="20"/>
  <rect id="6" x="5" y="132" width="25" height="20"/>
  <rect id="16" x="40" y="132" width="25" height="20"/>
  <rect id="26" x="75" y="132" width="25" height="20"/>
  <rect id="36" x="110" y="132" width="25" height="20"/>
  <rect id="46" x="145" y="132" width="25" height="20"/>
  <rect id="56" x="180" y="132" width="25" height="20"/>
  <rect id="7" x="5" y="107" width="25" height="20"/>
  <rect id="17" x="40" y="107" width="25" height="20"/>
  <rect id="27" x="75" y="107" width="25" height="20"/>
  <rect id="37" x="110" y="107" width="25" height="20"/>
  <rect id="47" x="145" y="107" width="25" height="20"/>
  <rect id="57" x="180" y="107" width="25" height="20"/>
  <rect id="8" x="5" y="82" width="25" height="20"/>
  <rect id="18" x="40" y="82" width="25" height="20"/>
  <rect id="28" x="75" y="82" width="25" height="20"/>
  <rect id="38" x="110" y="82" width="25" height="20"/>
  <rect id="48" x="145" y="82" width="25" height="20"/>
  <rect id="58" x="180" y="82" width="25" height="20"/>
  <rect id="9" x="5" y="57" width="25" height="20"/>
  <rect id="19" x="40" y="57" width="25" height="20"/>
  <rect id="29" x="75" y="57" width="25" height="20"/>
  <rect id="39" x="110" y="57" width="25" height="20"/>
  <rect id="49" x="145" y="57" width="25" height="20"/>
  <rect id="59" x="180" y="57" width="25" height="20"/>
  <rect id="10" x="5" y="32" width="25" height="20"/>
  <rect id="20" x="40" y="32" width="25" height="20"/>
  <rect id="30" x="75" y="32" width="25" height="20"/>
  <rect id="40" x="110" y="32" width="25" height="20"/>
  <rect id="50" x="145" y="32" width="25" height="20"/>
  <rect id="60" x="180" y="32" width="25" height="20"/>
 </g>
</svg>
