<?xml version="1.0" encoding="UTF-8"?>
<!-- Created with Inkscape (http://www.inkscape.org/) -->
<svg width="210mm" height="297mm" version="1.1" viewBox="0 0 210 297" xmlns="http://www.w3.org/2000/svg" xmlns:cc="http://creativecommons.org/ns#" xmlns:dc="http://purl.org/dc/elements/1.1/" xmlns:rdf="http://www.w3.org/1999/02/22-rdf-syntax-ns#">
 <metadata>
  <rdf:RDF>
   <cc:Work rdf:about="">
    <dc:format>image/svg+xml</dc:format>
    <dc:type rdf:resource="http://purl.org/dc/dcmitype/StillImage"/>
    <dc:title/>
   </cc:Work>
  </rdf:RDF>
 </metadata>
 <g fill="#ff0" stroke-width=".048724">
  <rect x="5" y="257" width="25" height="20"/>
  <rect x="40" y="257" width="25" height="20"/>
  <rect x="75" y="257" width="25" height="20"/>
  <rect x="110" y="257" width="25" height="20"/>
  <rect x="145" y="257" width="25" height="20"/>
  <rect x="180" y="257" width="25" height="20"/>
  <rect x="5" y="232" width="25" height="20"/>
  <rect x="40" y="232" width="25" height="20"/>
  <rect x="75" y="232" width="25" height="20"/>
  <rect x="110" y="232" width="25" height="20"/>
  <rect x="145" y="232" width="25" height="20"/>
  <rect x="180" y="232" width="25" height="20"/>
  <rect x="5" y="207" width="25" height="20"/>
  <rect x="40" y="207" width="25" height="20"/>
  <rect x="75" y="207" width="25" height="20"/>
  <rect x="110" y="207" width="25" height="20"/>
  <rect x="145" y="207" width="25" height="20"/>
  <rect x="180" y="207" width="25" height="20"/>
  <rect x="5" y="182" width="25" height="20"/>
  <rect x="40" y="182" width="25" height="20"/>
  <rect x="75" y="182" width="25" height="20"/>
  <rect x="110" y="182" width="25" height="20"/>
  <rect x="145" y="182" width="25" height="20"/>
  <rect x="180" y="182" width="25" height="20"/>
  <rect x="5" y="157" width="25" height="20"/>
  <rect x="40" y="157" width="25" height="20"/>
  <rect x="75" y="157" width="25" height="20"/>
  <rect x="110" y="157" width="25" height="20"/>
  <rect x="145" y="157" width="25" height="20"/>
  <rect x="180" y="157" width="25" height="20"/>
  <rect x="5" y="132" width="25" height="20"/>
  <rect x="40" y="132" width="25" height="20"/>
  <rect x="75" y="132" width="25" height="20"/>
  <rect x="110" y="132" width="25" height="20"/>
  <rect x="145" y="132" width="25" height="20"/>
  <rect x="180" y="132" width="25" height="20"/>
  <rect x="5" y="107" width="25" height="20"/>
  <rect x="40" y="107" width="25" height="20"/>
  <rect x="75" y="107" width="25" height="20"/>
  <rect x="110" y="107" width="25" height="20"/>
  <rect x="145" y="107" width="25" height="20"/>
  <rect x="180" y="107" width="25" height="20"/>
  <rect x="5" y="82" width="25" height="20"/>
  <rect x="40" y="82" width="25" height="20"/>
  <rect x="75" y="82" width="25" height="20"/>
  <rect x="110" y="82" width="25" height="20"/>
  <rect x="145" y="82" width="25" height="20"/>
  <rect x="180" y="82" width="25" height="20"/>
  <rect x="5" y="57" width="25" height="20"/>
  <rect x="40" y="57" width="25" height="20"/>
  <rect x="75" y="57" width="25" height="20"/>
  <rect x="110" y="57" width="25" height="20"/>
  <rect x="145" y="57" width="25" height="20"/>
  <rect x="180" y="57" width="25" height="20"/>
  <rect x="5" y="32" width="25" height="20"/>
  <rect x="40" y="32" width="25" height="20"/>
  <rect x="75" y="32" width="25" height="20"/>
  <rect x="110" y="32" width="25" height="20"/>
  <rect x="145" y="32" width="25" height="20"/>
  <rect x="180" y="32" width="25" height="20"/>
 </g>
</svg>
