<?xml version="1.0" encoding="UTF-8"?>
<!-- Created with Inkscape (http://www.inkscape.org/) -->
<svg width="210mm" height="297mm" version="1.1" viewBox="0 0 210 297" xmlns="http://www.w3.org/2000/svg" xmlns:cc="http://creativecommons.org/ns#" xmlns:dc="http://purl.org/dc/elements/1.1/" xmlns:rdf="http://www.w3.org/1999/02/22-rdf-syntax-ns#">
 <metadata>
  <rdf:RDF>
   <cc:Work rdf:about="">
    <dc:format>image/svg+xml</dc:format>
    <dc:type rdf:resource="http://purl.org/dc/dcmitype/StillImage"/>
    <dc:title/>
   </cc:Work>
  </rdf:RDF>
 </metadata>
 <g fill="#ff0" stroke-width=".054786">
  <rect id="1" x="-8.8818e-16" y="272.92" width="26.25" height="24.082"/>
  <rect id="11" x="36.75" y="272.92" width="26.25" height="24.082"/>
  <rect id="21" x="73.5" y="272.92" width="26.25" height="24.082"/>
  <rect id="31" x="110.25" y="272.92" width="26.25" height="24.082"/>
  <rect id="41" x="147" y="272.92" width="26.25" height="24.082"/>
  <rect id="51" x="183.75" y="272.92" width="26.25" height="24.082"/>
  <rect id="2" x="-8.8818e-16" y="242.82" width="26.25" height="24.082"/>
  <rect id="12" x="36.75" y="242.82" width="26.25" height="24.082"/>
  <rect id="22" x="73.5" y="242.82" width="26.25" height="24.082"/>
  <rect id="32" x="110.25" y="242.82" width="26.25" height="24.082"/>
  <rect id="42" x="147" y="242.82" width="26.25" height="24.082"/>
  <rect id="52" x="183.75" y="242.82" width="26.25" height="24.082"/>
  <rect id="3" x="-8.8818e-16" y="212.71" width="26.25" height="24.082"/>
  <rect id="13" x="36.75" y="212.71" width="26.25" height="24.082"/>
  <rect id="23" x="73.5" y="212.71" width="26.25" height="24.082"/>
  <rect id="33" x="110.25" y="212.71" width="26.25" height="24.082"/>
  <rect id="43" x="147" y="212.71" width="26.25" height="24.082"/>
  <rect id="53" x="183.75" y="212.71" width="26.25" height="24.082"/>
  <rect id="4" x="-8.8818e-16" y="182.61" width="26.25" height="24.082"/>
  <rect id="14" x="36.75" y="182.61" width="26.25" height="24.082"/>
  <rect id="24" x="73.5" y="182.61" width="26.25" height="24.082"/>
  <rect id="34" x="110.25" y="182.61" width="26.25" height="24.082"/>
  <rect id="44" x="147" y="182.61" width="26.25" height="24.082"/>
  <rect id="54" x="183.75" y="182.61" width="26.25" height="24.082"/>
  <rect id="5" x="-8.8818e-16" y="152.51" width="26.25" height="24.082"/>
  <rect id="15" x="36.75" y="152.51" width="26.25" height="24.082"/>
  <rect id="25" x="73.5" y="152.51" width="26.25" height="24.082"/>
  <rect id="35" x="110.25" y="152.51" width="26.25" height="24.082"/>
  <rect id="45" x="147" y="152.51" width="26.25" height="24.082"/>
  <rect id="55" x="183.75" y="152.51" width="26.25" height="24.082"/>
  <rect id="6" x="-8.8818e-16" y="122.41" width="26.25" height="24.082"/>
  <rect id="16" x="36.75" y="122.41" width="26.25" height="24.082"/>
  <rect id="26" x="73.5" y="122.41" width="26.25" height="24.082"/>
  <rect id="36" x="110.25" y="122.41" width="26.25" height="24.082"/>
  <rect id="46" x="147" y="122.41" width="26.25" height="24.082"/>
  <rect id="56" x="183.75" y="122.41" width="26.25" height="24.082"/>
  <rect id="7" x="-8.8818e-16" y="92.306" width="26.25" height="24.082"/>
  <rect id="17" x="36.75" y="92.306" width="26.25" height="24.082"/>
  <rect id="27" x="73.5" y="92.306" width="26.25" height="24.082"/>
  <rect id="37" x="110.25" y="92.306" width="26.25" height="24.082"/>
  <rect id="47" x="147" y="92.306" width="26.25" height="24.082"/>
  <rect id="57" x="183.75" y="92.306" width="26.25" height="24.082"/>
  <rect id="8" x="-8.8818e-16" y="62.204" width="26.25" height="24.082"/>
  <rect id="18" x="36.75" y="62.204" width="26.25" height="24.082"/>
  <rect id="28" x="73.5" y="62.204" width="26.25" height="24.082"/>
  <rect id="38" x="110.25" y="62.204" width="26.25" height="24.082"/>
  <rect id="48" x="147" y="62.204" width="26.25" height="24.082"/>
  <rect id="58" x="183.75" y="62.204" width="26.25" height="24.082"/>
  <rect id="9" x="-8.8818e-16" y="32.102" width="26.25" height="24.082"/>
  <rect id="19" x="36.75" y="32.102" width="26.25" height="24.082"/>
  <rect id="29" x="73.5" y="32.102" width="26.25" height="24.082"/>
  <rect id="39" x="110.25" y="32.102" width="26.25" height="24.082"/>
  <rect id="49" x="147" y="32.102" width="26.25" height="24.082"/>
  <rect id="59" x="183.75" y="32.102" width="26.25" height="24.082"/>
  <rect id="10" x="-8.8818e-16" y="2" width="26.25" height="24.082"/>
  <rect id="20" x="36.75" y="2" width="26.25" height="24.082"/>
  <rect id="30" x="73.5" y="2" width="26.25" height="24.082"/>
  <rect id="40" x="110.25" y="2" width="26.25" height="24.082"/>
  <rect id="50" x="147" y="2" width="26.25" height="24.082"/>
  <rect id="60" x="183.75" y="2" width="26.25" height="24.082"/>
 </g>
</svg>
